<svg width="140" height="56" viewBox="0 0 140 56" fill="none" xmlns="http://www.w3.org/2000/svg">
<path opacity="0.5" d="M52.0157 4.35129L39.286 51.8829C39.2212 52.0986 38.9623 52.1634 38.8113 52.0123L30.2888 43.4899L36.6753 19.6701C36.74 19.4544 36.5458 19.2602 36.3301 19.3249L12.5103 25.7114L4.03104 17.2321C3.88001 17.081 3.94474 16.8221 4.1605 16.7574L51.6705 4.00608C51.8863 3.96292 52.0804 4.15711 52.0157 4.35129Z" fill="#BB6BD9"/>
<path opacity="0.5" d="M30.2885 43.49L27.009 55.7882C26.9442 56.004 26.6853 56.0687 26.5343 55.9177L0.0823113 29.4873C-0.0687196 29.3362 -0.00399244 29.0773 0.211766 29.0126L12.51 25.7115L30.2885 43.49Z" fill="#9B51E0"/>
<path d="M36.6752 19.6699L30.2887 43.4897L12.5103 25.7112L36.33 19.3247C36.5457 19.26 36.7399 19.4542 36.6752 19.6699Z" fill="#BB6BD9"/>
<path d="M67.622 49.6314C67.622 49.4246 67.576 49.2334 67.4839 49.0576C67.3969 48.8767 67.2153 48.7139 66.939 48.5691C66.6678 48.4192 66.2585 48.29 65.711 48.1814C65.2505 48.0832 64.8335 47.9669 64.46 47.8325C64.0916 47.6981 63.777 47.5353 63.516 47.344C63.2602 47.1527 63.0632 46.9279 62.9251 46.6694C62.7869 46.411 62.7179 46.1086 62.7179 45.7622C62.7179 45.4314 62.7895 45.1187 62.9328 44.824C63.0811 44.5294 63.2884 44.2683 63.5544 44.0409C63.8256 43.8134 64.1505 43.6351 64.5291 43.5059C64.9077 43.3766 65.3298 43.312 65.7954 43.312C66.4606 43.312 67.0285 43.4309 67.4992 43.6687C67.97 43.9065 68.3307 44.2244 68.5814 44.6224C68.8321 45.0153 68.9574 45.4521 68.9574 45.9328H67.5376C67.5376 45.7002 67.4685 45.4753 67.3304 45.2582C67.1974 45.0359 67.0004 44.8524 66.7394 44.7077C66.4836 44.563 66.1689 44.4906 65.7954 44.4906C65.4015 44.4906 65.0817 44.5526 64.8361 44.6767C64.5956 44.7956 64.4191 44.9481 64.3065 45.1342C64.1991 45.3203 64.1454 45.5167 64.1454 45.7235C64.1454 45.8785 64.171 46.0181 64.2221 46.1422C64.2784 46.2611 64.3756 46.3722 64.5138 46.4756C64.6519 46.5738 64.8463 46.6668 65.097 46.7547C65.3477 46.8426 65.6675 46.9305 66.0564 47.0183C66.7369 47.1734 67.2971 47.3595 67.7372 47.5766C68.1772 47.7937 68.5046 48.0599 68.7195 48.3753C68.9344 48.6906 69.0419 49.0731 69.0419 49.5228C69.0419 49.8898 68.9651 50.2258 68.8116 50.5308C68.6632 50.8358 68.4458 51.0994 68.1593 51.3217C67.8779 51.5388 67.5402 51.7094 67.1462 51.8335C66.7573 51.9524 66.3199 52.0118 65.8338 52.0118C65.1022 52.0118 64.4831 51.88 63.9765 51.6164C63.47 51.3527 63.0863 51.0116 62.8253 50.5929C62.5644 50.1742 62.4339 49.7322 62.4339 49.267H63.8614C63.8819 49.6598 63.9944 49.9726 64.1991 50.2052C64.4038 50.4326 64.6545 50.5954 64.9512 50.6937C65.248 50.7867 65.5422 50.8332 65.8338 50.8332C66.2227 50.8332 66.5476 50.7815 66.8085 50.6782C67.0746 50.5748 67.2767 50.4326 67.4148 50.2517C67.553 50.0708 67.622 49.864 67.622 49.6314Z" fill="white"/>
<path d="M72.3267 39.9468V51.8567H70.9068V39.9468H72.3267ZM71.989 47.344L71.398 47.3207C71.4031 46.747 71.4876 46.2171 71.6513 45.7312C71.815 45.2401 72.0453 44.8137 72.342 44.4518C72.6388 44.09 72.9918 43.8108 73.4011 43.6144C73.8156 43.4128 74.2735 43.312 74.7749 43.312C75.1842 43.312 75.5526 43.3689 75.8801 43.4826C76.2075 43.5911 76.4864 43.7669 76.7166 44.0099C76.952 44.2528 77.1311 44.5681 77.2539 44.9558C77.3767 45.3383 77.4381 45.8062 77.4381 46.3593V51.8567H76.0105V46.3438C76.0105 45.9044 75.9466 45.5529 75.8187 45.2892C75.6908 45.0204 75.504 44.8266 75.2584 44.7077C75.0128 44.5836 74.711 44.5216 74.3528 44.5216C73.9998 44.5216 73.6774 44.5966 73.3858 44.7465C73.0993 44.8964 72.8511 45.1031 72.6413 45.3668C72.4367 45.6304 72.2755 45.9328 72.1578 46.274C72.0453 46.61 71.989 46.9667 71.989 47.344Z" fill="white"/>
<path d="M79.1879 47.755V47.5766C79.1879 46.9718 79.2749 46.411 79.4488 45.894C79.6228 45.3719 79.8735 44.9196 80.201 44.5371C80.5284 44.1494 80.925 43.8496 81.3906 43.6377C81.8562 43.4206 82.378 43.312 82.9562 43.312C83.5395 43.312 84.0639 43.4206 84.5295 43.6377C85.0002 43.8496 85.3993 44.1494 85.7268 44.5371C86.0594 44.9196 86.3126 45.3719 86.4866 45.894C86.6606 46.411 86.7475 46.9718 86.7475 47.5766V47.755C86.7475 48.3598 86.6606 48.9206 86.4866 49.4375C86.3126 49.9545 86.0594 50.4068 85.7268 50.7945C85.3993 51.177 85.0028 51.4768 84.5372 51.6939C84.0767 51.9058 83.5548 52.0118 82.9716 52.0118C82.3883 52.0118 81.8638 51.9058 81.3982 51.6939C80.9326 51.4768 80.5335 51.177 80.201 50.7945C79.8735 50.4068 79.6228 49.9545 79.4488 49.4375C79.2749 48.9206 79.1879 48.3598 79.1879 47.755ZM80.6077 47.5766V47.755C80.6077 48.1737 80.6563 48.5691 80.7535 48.9413C80.8508 49.3083 80.9966 49.634 81.191 49.9183C81.3906 50.2026 81.6387 50.4274 81.9355 50.5929C82.2322 50.7531 82.5776 50.8332 82.9716 50.8332C83.3604 50.8332 83.7007 50.7531 83.9923 50.5929C84.2891 50.4274 84.5346 50.2026 84.7291 49.9183C84.9235 49.634 85.0693 49.3083 85.1665 48.9413C85.2689 48.5691 85.32 48.1737 85.32 47.755V47.5766C85.32 47.1631 85.2689 46.7728 85.1665 46.4058C85.0693 46.0336 84.9209 45.7054 84.7214 45.4211C84.527 45.1316 84.2814 44.9041 83.9846 44.7387C83.693 44.5733 83.3502 44.4906 82.9562 44.4906C82.5673 44.4906 82.2245 44.5733 81.9278 44.7387C81.6361 44.9041 81.3906 45.1316 81.191 45.4211C80.9966 45.7054 80.8508 46.0336 80.7535 46.4058C80.6563 46.7728 80.6077 47.1631 80.6077 47.5766Z" fill="white"/>
<path d="M89.9479 45.0799V55.0823H88.5204V43.4671H89.8251L89.9479 45.0799ZM95.5428 47.5921V47.755C95.5428 48.3649 95.4712 48.931 95.3279 49.453C95.1847 49.97 94.9749 50.4197 94.6986 50.8022C94.4274 51.1847 94.0923 51.482 93.6932 51.6939C93.2941 51.9058 92.8362 52.0118 92.3194 52.0118C91.7924 52.0118 91.3268 51.9239 90.9226 51.7482C90.5184 51.5724 90.1756 51.3166 89.8942 50.9806C89.6128 50.6446 89.3877 50.2414 89.2188 49.771C89.0551 49.3006 88.9425 48.7707 88.8811 48.1814V47.313C88.9425 46.6927 89.0576 46.137 89.2265 45.6459C89.3953 45.1548 89.6179 44.7361 89.8942 44.3898C90.1756 44.0383 90.5158 43.7721 90.9149 43.5911C91.314 43.4051 91.7745 43.312 92.2964 43.312C92.8183 43.312 93.2813 43.4154 93.6855 43.6222C94.0897 43.8238 94.43 44.1132 94.7063 44.4906C94.9826 44.8679 95.1898 45.3203 95.3279 45.8475C95.4712 46.3696 95.5428 46.9511 95.5428 47.5921ZM94.1153 47.755V47.5921C94.1153 47.1734 94.0718 46.7806 93.9848 46.4135C93.8979 46.0414 93.7623 45.7157 93.5781 45.4366C93.399 45.1523 93.1687 44.93 92.8873 44.7697C92.6059 44.6043 92.2708 44.5216 91.8819 44.5216C91.5238 44.5216 91.2117 44.5836 90.9456 44.7077C90.6847 44.8318 90.4621 44.9998 90.2779 45.2117C90.0937 45.4185 89.9428 45.6563 89.8251 45.9251C89.7125 46.1887 89.6281 46.4627 89.5718 46.747V48.7552C89.6742 49.117 89.8174 49.4582 90.0016 49.7787C90.1858 50.094 90.4314 50.3499 90.7384 50.5463C91.0454 50.7376 91.4317 50.8332 91.8973 50.8332C92.281 50.8332 92.6111 50.7531 92.8873 50.5929C93.1687 50.4274 93.399 50.2026 93.5781 49.9183C93.7623 49.634 93.8979 49.3083 93.9848 48.9413C94.0718 48.5691 94.1153 48.1737 94.1153 47.755Z" fill="white"/>
<path d="M67.6193 8.81818V35H62.1733V8.81818H67.6193ZM71.9819 35V15.3636H77.4279V35H71.9819ZM74.7177 12.8324C73.908 12.8324 73.2134 12.5639 72.6339 12.027C72.0629 11.4815 71.7773 10.8295 71.7773 10.071C71.7773 9.32102 72.0629 8.67756 72.6339 8.14062C73.2134 7.59517 73.908 7.32244 74.7177 7.32244C75.5273 7.32244 76.2177 7.59517 76.7887 8.14062C77.3683 8.67756 77.658 9.32102 77.658 10.071C77.658 10.8295 77.3683 11.4815 76.7887 12.027C76.2177 12.5639 75.5273 12.8324 74.7177 12.8324ZM92.2351 15.3636V19.4545H80.4098V15.3636H92.2351ZM83.0945 10.6591H88.5405V28.9659C88.5405 29.4687 88.6172 29.8608 88.7706 30.142C88.924 30.4148 89.1371 30.6065 89.4098 30.7173C89.6911 30.8281 90.0149 30.8835 90.3814 30.8835C90.6371 30.8835 90.8928 30.8622 91.1484 30.8196C91.4041 30.7685 91.6001 30.7301 91.7365 30.7045L92.593 34.7571C92.3203 34.8423 91.9368 34.9403 91.4425 35.0511C90.9482 35.1705 90.3473 35.2429 89.6399 35.2685C88.3274 35.3196 87.1768 35.1449 86.1882 34.7443C85.2081 34.3437 84.4453 33.7216 83.8999 32.8778C83.3544 32.0341 83.0859 30.9687 83.0945 29.6818V10.6591ZM106.227 15.3636V19.4545H94.402V15.3636H106.227ZM97.0866 10.6591H102.533V28.9659C102.533 29.4687 102.609 29.8608 102.763 30.142C102.916 30.4148 103.129 30.6065 103.402 30.7173C103.683 30.8281 104.007 30.8835 104.374 30.8835C104.629 30.8835 104.885 30.8622 105.141 30.8196C105.396 30.7685 105.592 30.7301 105.729 30.7045L106.585 34.7571C106.313 34.8423 105.929 34.9403 105.435 35.0511C104.94 35.1705 104.339 35.2429 103.632 35.2685C102.32 35.3196 101.169 35.1449 100.18 34.7443C99.2003 34.3437 98.4375 33.7216 97.892 32.8778C97.3466 32.0341 97.0781 30.9687 97.0866 29.6818V10.6591ZM115.643 8.81818V35H110.197V8.81818H115.643ZM128.954 35.3835C126.934 35.3835 125.196 34.9744 123.738 34.1562C122.289 33.3295 121.173 32.1619 120.389 30.6534C119.605 29.1364 119.213 27.3423 119.213 25.2713C119.213 23.2514 119.605 21.4787 120.389 19.9531C121.173 18.4276 122.277 17.2386 123.7 16.3864C125.132 15.5341 126.811 15.108 128.737 15.108C130.032 15.108 131.238 15.3168 132.355 15.7344C133.48 16.1435 134.46 16.7614 135.295 17.5881C136.139 18.4148 136.795 19.4545 137.264 20.7074C137.733 21.9517 137.967 23.4091 137.967 25.0795V26.5753H121.386V23.2003H132.841C132.841 22.4162 132.67 21.7216 132.329 21.1165C131.988 20.5114 131.515 20.0384 130.91 19.6974C130.314 19.348 129.619 19.1733 128.826 19.1733C128 19.1733 127.267 19.3651 126.627 19.7486C125.997 20.1236 125.502 20.6307 125.145 21.2699C124.787 21.9006 124.603 22.6037 124.595 23.3793V26.5881C124.595 27.5597 124.774 28.3991 125.132 29.1065C125.498 29.8139 126.014 30.3594 126.679 30.7429C127.343 31.1264 128.132 31.3182 129.044 31.3182C129.649 31.3182 130.203 31.233 130.706 31.0625C131.208 30.892 131.639 30.6364 131.997 30.2955C132.355 29.9545 132.627 29.5369 132.815 29.0426L137.852 29.375C137.596 30.5852 137.072 31.642 136.279 32.5455C135.495 33.4403 134.481 34.1392 133.237 34.642C132.001 35.1364 130.574 35.3835 128.954 35.3835Z" fill="white"/>
</svg>
